<svg width="53" height="28" viewBox="0 0 53 28" fill="none" xmlns="http://www.w3.org/2000/svg">
<path d="M0.159992 13.32C0.239991 12.4667 0.426658 11.6533 0.719992 10.88C1.03999 10.1067 1.49332 9.42666 2.07999 8.83999C2.66666 8.25332 3.39999 7.78666 4.27999 7.43999C5.15999 7.06666 6.17333 6.87999 7.31999 6.87999H9.71999C10.92 6.87999 11.96 7.07999 12.84 7.47999C13.7467 7.87999 14.4933 8.41332 15.08 9.07999C15.6667 9.71999 16.1067 10.4667 16.4 11.32C16.6933 12.1467 16.84 12.9867 16.84 13.84V27.24H5.47999C4.59999 27.24 3.81333 27.08 3.11999 26.76C2.42666 26.4133 1.83999 25.9733 1.35999 25.44C0.906658 24.88 0.559992 24.2267 0.319992 23.48C0.106658 22.7333 -8.52346e-06 21.9333 -8.52346e-06 21.08C-8.52346e-06 20.2533 0.119991 19.48 0.359991 18.76C0.599992 18.04 0.946658 17.4267 1.39999 16.92C1.85332 16.3867 2.41332 15.9733 3.07999 15.68C3.77333 15.36 4.54666 15.2 5.39999 15.2H12.24V14.8C12.24 14.32 12.2 13.88 12.12 13.48C12.04 13.0533 11.8933 12.6933 11.68 12.4C11.4667 12.1067 11.1467 11.88 10.72 11.72C10.2933 11.5333 9.71999 11.44 8.99999 11.44H7.99999C6.93333 11.44 6.17333 11.6 5.71999 11.92C5.26666 12.2133 4.95999 12.68 4.79999 13.32H0.159992ZM4.27999 21.08C4.27999 21.7733 4.41332 22.2933 4.67999 22.64C4.97333 22.96 5.29333 23.12 5.63999 23.12H12.24V19.04H5.63999C5.29333 19.04 4.97333 19.2133 4.67999 19.56C4.41332 19.9067 4.27999 20.4133 4.27999 21.08ZM24.815 27.24H20.095V6.87999H24.815V27.24ZM24.815 4.67999H20.095V-1.19209e-05H24.815V4.67999ZM28.4572 -1.19209e-05H33.1772V27.24H28.4572V-1.19209e-05ZM45.49 6.87999C46.6633 6.87999 47.7033 7.06666 48.61 7.43999C49.5433 7.78666 50.33 8.27999 50.97 8.91999C51.6367 9.55999 52.1433 10.3333 52.49 11.24C52.8367 12.1467 53.01 13.1733 53.01 14.32V19.8C53.01 20.92 52.8367 21.9467 52.49 22.88C52.1433 23.7867 51.6367 24.5733 50.97 25.24C50.33 25.88 49.5433 26.3733 48.61 26.72C47.7033 27.0667 46.6633 27.24 45.49 27.24H43.85C42.7033 27.24 41.6633 27.0667 40.73 26.72C39.7967 26.3733 38.9967 25.88 38.33 25.24C37.69 24.5733 37.1967 23.7867 36.85 22.88C36.53 21.9467 36.37 20.92 36.37 19.8V14.32C36.37 13.1733 36.53 12.1467 36.85 11.24C37.1967 10.3333 37.69 9.55999 38.33 8.91999C38.9967 8.27999 39.7967 7.78666 40.73 7.43999C41.6633 7.06666 42.7033 6.87999 43.85 6.87999H45.49ZM43.85 11.48C43.0233 11.48 42.3167 11.76 41.73 12.32C41.17 12.8533 40.89 13.56 40.89 14.44V19.64C40.89 20.52 41.17 21.24 41.73 21.8C42.3167 22.36 43.0233 22.64 43.85 22.64H45.49C46.3433 22.64 47.0367 22.36 47.57 21.8C48.13 21.24 48.41 20.52 48.41 19.64V14.44C48.41 13.56 48.13 12.8533 47.57 12.32C47.0367 11.76 46.3433 11.48 45.49 11.48H43.85Z" fill="#6F00FF"/>
</svg>
