<svg width="42" height="41" viewBox="0 0 42 41" fill="none" xmlns="http://www.w3.org/2000/svg">
<ellipse cx="20.9252" cy="20.1145" rx="20.9252" ry="20.1145" fill="#6F00FF"/>
<path d="M25.6782 17.2426C24.553 18.3679 23.0268 19 21.4355 19C19.8442 19 18.3181 18.3679 17.1929 17.2426C16.0677 16.1174 15.4355 14.5913 15.4355 13C15.4355 11.4087 16.0677 9.88258 17.1929 8.75736C18.3181 7.63214 19.8442 7 21.4355 7C23.0268 7 24.553 7.63214 25.6782 8.75736C26.8034 9.88258 27.4355 11.4087 27.4355 13C27.4355 14.5913 26.8034 16.1174 25.6782 17.2426Z" fill="#1B1A24"/>
<path d="M28.1939 35.7648C29.4117 35.3867 33 33.285 33 30.5714C33 30.5714 32.997 22 21.4697 22C12.3324 22 10.438 27.561 10.0461 29.8656C9.94236 30.4673 10.0461 31.4285 10.0461 31.4285C10.0461 34.1422 14.0146 35.5263 14.7454 35.7648C15.4762 36.0034 18.4811 37 21.4697 37C24.4582 37 26.9762 36.143 28.1939 35.7648Z" fill="#1B1A24"/>
</svg>
